<?xml version="1.0" encoding="utf-8"?>
<!-- Generator: Adobe Illustrator 19.0.0, SVG Export Plug-In . SVG Version: 6.00 Build 0)  -->
<svg version="1.1" id="Layer_1" xmlns="http://www.w3.org/2000/svg" xmlns:xlink="http://www.w3.org/1999/xlink" x="0px" y="0px"
	 viewBox="0 0 405.3 382" style="enable-background:new 0 0 405.3 382;" xml:space="preserve">
<style type="text/css">
	.st0{fill:#FFFFFF;}
</style>
<g>
	<path class="st0" d="M46.1,360v21.7h-6V360h-7.6v-5.2h21.2v5.2H46.1z"/>
	<path class="st0" d="M58.1,354.8h6v26.9h-6V354.8z"/>
	<path class="st0" d="M82.1,360v21.7h-6V360h-7.6v-5.2h21.2v5.2H82.1z"/>
	<path class="st0" d="M111.3,381.6l-2.5-5.8H97.5l-2.5,5.8h-6.4l11.6-26.9h5.8l11.6,26.9H111.3z M103.2,362.8l-3.4,7.8h6.7
		L103.2,362.8z"/>
	<path class="st0" d="M139.6,354.8h6v26.9h-6l-12.8-16.8v16.8h-6v-26.9h5.6l13.2,17.3V354.8z"/>
	<path class="st0" d="M194.1,363.7c0,4.3-1.7,7.1-5.1,8.3l6.8,9.6h-7.4l-6-8.6h-4.2v8.6h-6v-26.9h10.2c4.2,0,7.2,0.7,8.9,2.1
		C193.2,358.3,194.1,360.6,194.1,363.7z M186.9,366.9c0.7-0.7,1.1-1.7,1.1-3.2c0-1.4-0.4-2.4-1.2-3c-0.8-0.5-2.1-0.8-4-0.8h-4.5v8
		h4.4C184.8,367.9,186.2,367.5,186.9,366.9z"/>
	<path class="st0" d="M222.6,377.9c-2.7,2.7-6.1,4-10,4c-4,0-7.3-1.3-10-4c-2.7-2.7-4.1-6-4.1-9.9c0-3.9,1.4-7.2,4.1-9.9
		c2.7-2.7,6.1-4,10-4c4,0,7.3,1.3,10,4c2.7,2.7,4.1,6,4.1,9.9C226.7,372,225.3,375.3,222.6,377.9z M220.6,368c0-2.4-0.8-4.4-2.3-6.1
		c-1.5-1.7-3.4-2.5-5.7-2.5c-2.2,0-4.1,0.8-5.7,2.5c-1.5,1.7-2.3,3.7-2.3,6.1c0,2.4,0.8,4.4,2.3,6.1c1.5,1.7,3.4,2.5,5.7,2.5
		c2.2,0,4.1-0.8,5.7-2.5C219.8,372.5,220.6,370.4,220.6,368z"/>
	<path class="st0" d="M243.5,381.6h-11.8v-26.9h10.5c1.8,0,3.4,0.2,4.7,0.7c1.3,0.4,2.3,1,3,1.8c1.2,1.4,1.8,2.9,1.8,4.7
		c0,2.1-0.7,3.7-2,4.7c-0.5,0.4-0.8,0.6-1,0.7c-0.2,0.1-0.5,0.2-1,0.4c1.7,0.4,3,1.1,4,2.2c1,1.1,1.5,2.6,1.5,4.2
		c0,1.9-0.6,3.5-1.9,5C249.8,380.8,247.2,381.6,243.5,381.6z M237.8,365.6h2.8c1.7,0,2.9-0.2,3.7-0.5c0.8-0.4,1.2-1.1,1.2-2.3
		c0-1.2-0.4-2-1.1-2.4c-0.7-0.4-2-0.6-3.8-0.6h-2.9V365.6z M237.8,376.6h4.1c1.7,0,3-0.2,3.9-0.6c0.9-0.4,1.3-1.3,1.3-2.5
		c0-1.2-0.5-2.1-1.4-2.5c-0.9-0.4-2.4-0.6-4.4-0.6h-3.5V376.6z"/>
	<path class="st0" d="M280.9,377.9c-2.7,2.7-6.1,4-10,4c-4,0-7.3-1.3-10-4c-2.7-2.7-4.1-6-4.1-9.9c0-3.9,1.4-7.2,4.1-9.9
		c2.7-2.7,6.1-4,10-4c4,0,7.3,1.3,10,4c2.7,2.7,4.1,6,4.1,9.9C284.9,372,283.6,375.3,280.9,377.9z M278.8,368c0-2.4-0.8-4.4-2.3-6.1
		c-1.5-1.7-3.4-2.5-5.7-2.5c-2.2,0-4.1,0.8-5.7,2.5c-1.5,1.7-2.3,3.7-2.3,6.1c0,2.4,0.8,4.4,2.3,6.1c1.5,1.7,3.4,2.5,5.7,2.5
		c2.2,0,4.1-0.8,5.7-2.5C278.1,372.5,278.8,370.4,278.8,368z"/>
	<path class="st0" d="M300.7,360v21.7h-6V360H287v-5.2h21.2v5.2H300.7z"/>
	<path class="st0" d="M312.7,354.8h6v26.9h-6V354.8z"/>
	<path class="st0" d="M337.6,376.3c2.9,0,5.4-1.2,7.2-3.5l3.8,4c-3,3.4-6.6,5.2-10.8,5.2c-4.1,0-7.5-1.3-10.2-3.9
		c-2.7-2.6-4-5.9-4-9.9c0-4,1.4-7.3,4.1-10c2.7-2.7,6.1-4,10-4c4.4,0,8.1,1.7,11.1,5l-3.7,4.2c-1.9-2.4-4.3-3.5-7.1-3.5
		c-2.3,0-4.2,0.7-5.8,2.2c-1.6,1.5-2.4,3.5-2.4,6c0,2.5,0.8,4.5,2.3,6C333.6,375.6,335.4,376.3,337.6,376.3z"/>
	<path class="st0" d="M359.7,360.1c-0.6,0.5-0.9,1.1-0.9,1.9s0.4,1.4,1.1,1.9c0.7,0.5,2.3,1,4.9,1.6c2.5,0.6,4.5,1.6,5.9,2.8
		c1.4,1.3,2.1,3.1,2.1,5.5c0,2.4-0.9,4.4-2.7,5.9c-1.8,1.5-4.2,2.2-7.1,2.2c-4.3,0-8.1-1.6-11.5-4.7l3.6-4.4c2.9,2.5,5.6,3.8,8,3.8
		c1.1,0,2-0.2,2.6-0.7c0.6-0.5,0.9-1.1,0.9-1.9c0-0.8-0.3-1.4-1-1.9c-0.7-0.5-2-1-4-1.4c-3.1-0.7-5.4-1.7-6.9-2.9
		c-1.4-1.2-2.2-3.1-2.2-5.6c0-2.5,0.9-4.5,2.7-5.9c1.8-1.4,4.1-2.1,6.9-2.1c1.8,0,3.6,0.3,5.4,0.9c1.8,0.6,3.4,1.5,4.7,2.6l-3,4.4
		c-2.3-1.8-4.7-2.7-7.2-2.7C361,359.4,360.3,359.7,359.7,360.1z"/>
</g>
<g>
	<path class="st0" d="M126.4,343.3c7.6,0,14.2-2.4,19.4-7c5.3-4.7,8-10.8,8-18c0-7.2-2.6-13.1-7.8-17.4c-5.1-4.2-11.2-6.4-18.1-6.4
		c-1.4,0-2.7,0.1-3.9,0.2l-1.4,0.2v-7.7h27.1v-16.6H105v35.8l7.7,8.3l1.1-0.6c4.3-2.3,8.1-3.5,11.3-3.5c3.1,0,5.6,0.7,7.5,2.2
		c1.8,1.4,2.6,3.2,2.6,5.8c0,2.6-0.8,4.4-2.4,5.7c-1.7,1.3-3.7,2-6,2c-2.3,0-4.7-0.6-7.1-1.9c-2.5-1.3-4.2-2.4-5.1-3.2
		c-0.9-0.8-1.7-1.5-2.3-2.1l-1.4-1.4l-10,13.9l0.9,1C108.5,339.7,116.7,343.3,126.4,343.3z M111.4,322.8l1.1,0.8
		c1.1,0.9,2.9,2.1,5.7,3.6c2.8,1.5,5.7,2.3,8.6,2.3c3,0,5.7-0.9,8-2.7c1.7-1.3,3.7-3.8,3.7-8.3c0-3.6-1.4-6.5-3.9-8.4
		c-2.5-1.9-5.7-2.8-9.5-2.8c-3.3,0-6.8,1-10.9,2.9l-0.8,0.4l-5.1-5.5V274h38.1v9.9h-27.1v15.3l2.1-0.6c1.9-0.5,4.1-0.8,6.5-0.8
		c6.3,0,11.5,1.8,16,5.6c4.4,3.7,6.6,8.6,6.6,14.9c0,6.3-2.2,11.4-6.9,15.5c-4.7,4.2-10.3,6.2-17.2,6.2c-8.1,0-14.7-2.6-20.3-8
		l-0.8-0.7L111.4,322.8z"/>
	<path class="st0" d="M212.1,309.6h-7.8v-12h-16l16.1-27h-20.5l-25.1,41.7v13.8h27.6v16.4h18v-16.4h7.8V309.6z M208.8,322.9H201
		v16.4h-11.4v-16.4H162v-9.6l23.7-39.3h12.8l-23.3,38.9h14.3v-12H201v12h7.8V322.9z M186.3,301v8.6h-5.1L186.3,301z"/>
	<path class="st0" d="M241.1,343.3c7.9,0,14.6-2.2,19.7-6.5c5.2-4.4,7.9-10.5,7.9-18.2c0-5.2-1.6-9.9-4.9-13.8
		c-2.3-2.9-5.4-5-9.2-6.3l-1.7-0.6l12.5-14.3v-12.9h-45.3V287h19.6l-11.2,13.2v14.2l2.2-0.7c3.7-1.2,6.7-1.8,8.6-1.8
		c3.7,0,6.5,0.7,8.5,2.2c1.9,1.3,2.8,3.1,2.8,5.4c0,2.3-0.8,4-2.3,5.2c-1.7,1.3-3.9,1.9-6.6,1.9c-4.7,0-10.3-2.2-16.4-6.6l-1.6-1.1
		l-7.8,15.1l1.2,0.8C225.2,340.5,233.2,343.3,241.1,343.3z M224.9,323.9l1.1,0.7c5.7,3.6,10.9,5.4,15.6,5.4c3.4,0,6.3-0.9,8.6-2.6
		c2.4-1.8,3.7-4.5,3.7-7.8c0-3.3-1.4-6.1-4.1-8.1c-2.6-1.9-6.1-2.8-10.5-2.8c-1.6,0-3.5,0.3-5.9,0.9l-1.5,0.4v-8.4l15.1-17.8h-23.4
		V274h38.7v8.3l-15.6,17.8l2.9,0.5c5.1,0.9,9,2.9,11.7,6.3c2.8,3.4,4.1,7.3,4.1,11.8c0,6.7-2.2,11.9-6.7,15.7
		c-4.6,3.9-10.4,5.7-17.6,5.7c-6.5,0-13.2-2.1-19.9-6.3l-1-0.6L224.9,323.9z"/>
	<path class="st0" d="M305,341.7v-71.9h-31.1v16.4h13v55.5H305z M277.2,282.9v-9.7h24.5v65.3h-11.4v-55.5H277.2z"/>
</g>
<line class="st0" x1="254.6" y1="46.9" x2="273.7" y2="59.7"/>
<path class="st0" d="M202.7,190.5l4.4,0l-1.4-21l37.5-6.5c0,0,3.3,14.9-15.6,20.4c-18.9,5.5-17.9,21.3-17.9,21.3L210,266
	c36.5-8.7,48.6-37.5,48.6-37.5v-86.4c-23.9-35.8-51.1-39.5-51.1-39.5l1.9-36.6h-6.8h-6.8l1.9,36.6c0,0-27.2,3.7-51.1,39.5v86.4
	c0,0,12.1,28.8,48.6,37.5l0.4-61.3c0,0,1.1-15.9-17.9-21.3c-18.9-5.5-15.6-20.4-15.6-20.4l37.5,6.5l-1.4,21L202.7,190.5z"/>
<path class="st0" d="M344,168.2c-0.6-4.3-4.4-8.3-8.8-9v0c0,0,0,0-11.2-1.8c-4.4-0.7-7.5-3.7-8.6-7.8l-2.4-9.1h25.4l4.3,12.9h3.6
	l-3-26.3c-6-21.5-25.8-37.3-49.2-37.3c-21.5,0-39.9,13.3-47.4,32c4.9,5,10,11,14.9,18.3l0.6,0.9v59.4c7.6-3.3,16-5.2,24.7-5.5
	c-4.2-4.8-6.7-11.2-6.7-18.1c0-4.7,1.2-9.1,3.2-12.9l0,0.1c-0.8,2.6-1.2,5.4-1.2,8.2c0,9.5,4.8,17.9,12.1,22.9h0
	c23.5,1.6,43.8,15,55.1,34.3l3.3,0L344,168.2z"/>
<path class="st0" d="M294.1,74.9c-25.9,0-48.3,15-59.1,36.7c2.8,2,5.7,4.4,8.6,7.1c8.5-19.5,27.9-33.1,50.5-33.1
	c24.6,0,45.5,16.2,52.6,38.5l8.9-7.4C345.9,92.3,322.1,74.9,294.1,74.9z"/>
<path class="st0" d="M375,81.5l-15.8,7.1c-2-2.5-4.1-4.9-6.4-7.1l8.7-15l-11.7-9.1l-12.4,12.1c-2.7-1.7-5.5-3.2-8.5-4.5l3.1-17
	L318,43.4L310.5,59c-3.1-0.6-6.3-1.1-9.5-1.3L298,40.6l-14.8,0.5l-1.7,17.2c-3.2,0.5-6.3,1.2-9.4,2l-8.6-15l-13.8,5.6l4.3,16.8
	c-2.8,1.5-5.5,3.2-8.1,5.1l-13.2-11.2l-11,9.9l9.7,14.3c-2.1,2.4-4.1,4.9-5.9,7.5l-13.7-5.1l-0.6,11.5c4.1,1.1,11.6,3.7,20.5,9.6
	c11.5-22.8,35.1-38.4,62.4-38.4c29.2,0,54.2,17.9,64.6,43.2l24.1-20.1L375,81.5z"/>
<path class="st0" d="M173.6,109.4c9-6,16.5-8.5,20.5-9.6l-0.6-11.5l-13.7,5.1c-1.8-2.6-3.8-5.1-5.9-7.5l9.7-14.3l-11-9.9l-13.2,11.2
	c-2.6-1.8-5.3-3.5-8.1-5.1l4.3-16.8l-13.8-5.6l-8.6,15c-3.1-0.8-6.2-1.5-9.4-2l-1.7-17.2l-14.8-0.5l-2.9,17.1
	c-3.2,0.3-6.4,0.7-9.5,1.3l-7.5-15.6L73.2,48l3.1,17c-2.9,1.3-5.7,2.8-8.5,4.5L55.5,57.5l-11.7,9.1l8.7,15c-2.3,2.2-4.4,4.6-6.4,7.1
	l-15.8-7.1l-7.9,12.6l24.1,20.1C57,88.8,82,70.9,111.2,70.9C138.5,70.9,162.1,86.6,173.6,109.4z"/>
<path class="st0" d="M161.7,118.8c2.9-2.7,5.8-5.1,8.6-7.1c-10.8-21.8-33.2-36.7-59.1-36.7c-27.9,0-51.8,17.4-61.4,41.9l8.9,7.4
	c7-22.3,27.9-38.5,52.5-38.5C133.8,85.7,153.2,99.3,161.7,118.8z"/>
<path class="st0" d="M118.4,194.9c8.7,0.3,17.1,2.3,24.7,5.5V141l0.6-0.9c4.9-7.3,9.9-13.4,14.9-18.3c-7.6-18.8-25.9-32-47.4-32
	C87.8,89.7,68,105.5,62,127l-3,26.3h3.6l4.3-12.9h25.4l-2.4,9.1c-1.1,4.2-4.1,7.1-8.6,7.8c-11.2,1.7-11.2,1.8-11.2,1.8v0
	c-4.4,0.7-8.2,4.7-8.8,9l-8.6,61.1l3.3,0c11.3-19.3,31.6-32.7,55.1-34.3h0c7.3-5,12.1-13.4,12.1-22.9c0-2.9-0.4-5.6-1.2-8.2l0-0.1
	c2,3.9,3.2,8.3,3.2,12.9C125.1,183.7,122.6,190,118.4,194.9z"/>
<path class="st0" d="M253,45.7l12.1-4.9l8.8,15.4c1.4-0.3,2.9-0.7,4.4-0.9l1.5-14.5c-27.6-22.4-60.4-29.2-70.2-30.7L202.8,0
	l-6.7,10.1c-9.8,1.5-42.8,8.4-70.5,30.9l1.4,14.3c1.5,0.3,2.9,0.6,4.4,0.9l8.8-15.4l12.3,5c24.7-17.2,44-17.3,44-17.3l6.3,10.1
	l6.3-10.1C209.1,28.5,228.4,28.7,253,45.7z"/>
<g>
	<path class="st0" d="M121.3,321.5c0.8,0.4,1.7,0.8,2.5,1l8.2-4.8c-0.2-1.3-0.7-2-1.3-2.4c-1.3-1-3.1-1.5-5.5-1.5
		c-2.6,0-6,1.1-9.7,3.1l-0.3,0.2c0.5,0.4,1.1,1,1.8,1.6C117.2,319,118.3,319.9,121.3,321.5z"/>
	<path class="st0" d="M99.6,334.7l-2.6-2.9l11.8-16.5l-1.9-2l-6.5,4.2l-30.2-20.2l24.4,42.4l6.3-3.7
		C100.4,335.6,100,335.1,99.6,334.7z"/>
	<path class="st0" d="M119.4,267.5h33.5v23H142l-3.8,2.5c3.6,1.2,6.9,3,9.9,5.5c2.3,1.9,4.1,4.1,5.5,6.5l9.1-5.4l11.2-18.6
		c-38-22.6-66.9-54.8-71.2-81.8c-6.5,0.8-17.4,4.4-24,9.4C86.8,235.3,104.1,254.7,119.4,267.5z"/>
</g>
<g>
	<path class="st0" d="M268.7,267.5v12.4c0.6-0.4,1.3-0.8,2-1.2v-12h16.2c15.1-12.7,31.8-31.9,39.8-58.1c-7.6-4.9-13.2-7.4-24-9.4
		c-3.5,22-23.4,47.5-51.1,68.4H268.7z"/>
	<polygon class="st0" points="308.2,315.3 308.2,338.2 310.8,339.7 335.2,297.3 	"/>
	<path class="st0" d="M283.7,303.7l-20.1-13.1l-5.2,5.9c3.1,1.5,5.8,3.6,8,6.2c3.3,4.1,5.2,8.8,5.5,14l11.8,7V303.7z"/>
	<polygon class="st0" points="232.9,290.2 226.8,290.2 230.8,292.6 	"/>
</g>
</svg>
