<?xml version="1.0" encoding="utf-8"?>
<!-- Generator: Adobe Illustrator 19.0.0, SVG Export Plug-In . SVG Version: 6.00 Build 0)  -->
<svg version="1.1" id="Layer_1" xmlns="http://www.w3.org/2000/svg" xmlns:xlink="http://www.w3.org/1999/xlink" x="0px" y="0px"
	 viewBox="-179 181 360 360" style="enable-background:new -179 181 360 360;" xml:space="preserve">
<style type="text/css">
	.st0{fill:#00AEED;}
	.st1{fill:#FFFFFF;}
</style>
<g id="Layer_2">
	<ellipse class="st0" cx="1" cy="361" rx="161.3" ry="161.6"/>
</g>
<g id="Layer_1_1_">
	<g>
		<path class="st1" d="M-33,435.6c69.3,0,107.1-57.4,107.1-107.1c0-1.6,0-3.3-0.1-4.9c7.4-5.3,13.7-11.9,18.8-19.5
			c-6.7,3-14,5-21.6,5.9c7.8-4.7,13.7-12,16.6-20.8c-7.3,4.3-15.3,7.5-23.9,9.1c-6.9-7.3-16.7-11.9-27.5-11.9
			c-20.8,0-37.7,16.9-37.7,37.7c0,3,0.3,5.8,1,8.6c-31.3-1.6-59-16.6-77.6-39.3c-3.2,5.6-5.1,12-5.1,18.9c0,13.1,6.6,24.6,16.8,31.3
			c-6.2-0.2-12-1.9-17.1-4.7c0,0.2,0,0.3,0,0.5c0,18.2,13,33.5,30.2,36.9c-3.2,0.9-6.5,1.3-9.9,1.3c-2.4,0-4.8-0.2-7.1-0.7
			c4.8,15,18.7,25.8,35.2,26.2c-12.9,10.1-29.1,16.1-46.8,16.1c-3,0-6-0.2-9-0.5C-74.1,429.3-54.3,435.6-33,435.6"/>
	</g>
</g>
</svg>
