<?xml version="1.0" encoding="utf-8"?>
<!-- Generator: Adobe Illustrator 19.0.0, SVG Export Plug-In . SVG Version: 6.00 Build 0)  -->
<svg version="1.1" id="Layer_1" xmlns="http://www.w3.org/2000/svg" xmlns:xlink="http://www.w3.org/1999/xlink" x="0px" y="0px"
	 viewBox="-179 181 360 360" style="enable-background:new -179 181 360 360;" xml:space="preserve">
<style type="text/css">
	.st0{fill:#00AEED;}
	.st1{fill:#FFFFFF;}
</style>
<g id="Layer_2">
	<ellipse class="st0" cx="1" cy="361" rx="161.3" ry="161.6"/>
</g>
<path id="White_2_" class="st1" d="M78.5,273.9H-76.5c-5.3,0-9.6,4.3-9.6,9.6v154.9c0,5.3,4.3,9.6,9.6,9.6H6.9v-67.4h-22.7v-26.3
	H6.9V335c0-22.5,13.7-34.7,33.8-34.7c9.6,0,17.9,0.7,20.3,1v23.5l-13.9,0c-10.9,0-13,5.2-13,12.8v16.8h26l-3.4,26.3H34.1v67.4h44.4
	c5.3,0,9.6-4.3,9.6-9.6V283.5C88.1,278.2,83.8,273.9,78.5,273.9z"/>
</svg>
