<?xml version="1.0" encoding="utf-8"?>
<!-- Generator: Adobe Illustrator 19.0.0, SVG Export Plug-In . SVG Version: 6.00 Build 0)  -->
<svg version="1.1" id="Layer_1" xmlns="http://www.w3.org/2000/svg" xmlns:xlink="http://www.w3.org/1999/xlink" x="0px" y="0px"
	 viewBox="0 0 405.3 382" style="enable-background:new 0 0 405.3 382;" xml:space="preserve">
<style type="text/css">
	.st0{fill:#FFFFFF;}
</style>
<line class="st0" x1="261.1" y1="52.7" x2="282.5" y2="67.1"/>
<path class="st0" d="M202.7,214.3l5,0l-1.6-23.6l42.2-7.3c0,0,3.7,16.8-17.6,23c-21.3,6.2-20.1,24-20.1,24l0.4,68.9
	c41.1-9.8,54.6-42.2,54.6-42.2v-97.2c-26.9-40.2-57.5-44.4-57.5-44.4l2.2-41.2h-7.6h-7.6l2.2,41.2c0,0-30.6,4.2-57.5,44.4v97.2
	c0,0,13.6,32.4,54.6,42.2l0.4-68.9c0,0,1.2-17.8-20.1-24c-21.3-6.2-17.6-23-17.6-23l42.2,7.3l-1.6,23.6L202.7,214.3z"/>
<path class="st0" d="M361.6,189.1c-0.7-4.9-5-9.3-9.9-10.1v0c0,0,0,0-12.5-2c-5-0.8-8.4-4.1-9.6-8.8l-2.7-10.3h28.6l4.8,14.5h4.1
	l-3.4-29.5c-6.8-24.2-29-41.9-55.3-41.9c-24.2,0-44.8,14.9-53.3,36c5.6,5.6,11.2,12.4,16.7,20.6l0.7,1v66.8c8.6-3.7,18-5.9,27.8-6.2
	c-4.7-5.4-7.5-12.6-7.5-20.3c0-5.3,1.3-10.2,3.6-14.5l0,0.1c-0.9,2.9-1.4,6-1.4,9.2c0,10.7,5.4,20.1,13.6,25.7h0
	c26.5,1.8,49.3,16.8,61.9,38.5l3.7,0L361.6,189.1z"/>
<path class="st0" d="M305.5,84.3c-29.2,0-54.4,16.8-66.5,41.3c3.1,2.3,6.4,4.9,9.7,8c9.6-21.9,31.4-37.2,56.8-37.2
	c27.7,0,51.2,18.2,59.1,43.3l10-8.3C363.8,103.8,336.9,84.3,305.5,84.3z"/>
<path class="st0" d="M396.5,91.7l-17.8,8c-2.3-2.8-4.6-5.5-7.2-8l9.8-16.8l-13.1-10.3l-13.9,13.6c-3.1-1.9-6.2-3.6-9.5-5.1l3.5-19.1
	l-15.9-5.2l-8.5,17.5c-3.5-0.7-7.1-1.2-10.7-1.5l-3.3-19.2l-16.7,0.6l-2,19.4c-3.6,0.5-7.1,1.3-10.5,2.2L271.1,51l-15.5,6.2
	l4.8,18.9c-3.2,1.7-6.2,3.6-9.1,5.7l-14.9-12.6l-12.4,11.2l11,16.1c-2.4,2.7-4.6,5.5-6.7,8.5L213,99.3l-0.7,12.9
	c4.6,1.2,13,4.1,23.1,10.8c13-25.6,39.5-43.2,70.2-43.2c32.8,0,60.9,20.1,72.7,48.6l27.1-22.6L396.5,91.7z"/>
<path class="st0" d="M170,123c10.1-6.7,18.5-9.6,23.1-10.8l-0.7-12.9l-15.4,5.7c-2.1-3-4.3-5.8-6.7-8.5l11-16.1l-12.4-11.2L154,81.8
	c-2.9-2.1-6-4-9.1-5.7l4.8-18.9L134.2,51l-9.7,16.9c-3.4-0.9-7-1.7-10.5-2.2l-2-19.4l-16.7-0.6l-3.3,19.2c-3.6,0.3-7.2,0.8-10.7,1.5
	L73,48.8L57.1,54l3.5,19.1c-3.3,1.5-6.5,3.2-9.5,5.1L37.1,64.6L24,74.9l9.8,16.8c-2.5,2.5-4.9,5.2-7.2,8l-17.8-8L0,105.9l27.1,22.6
	C38.9,99.9,67,79.8,99.8,79.8C130.5,79.8,157,97.4,170,123z"/>
<path class="st0" d="M156.6,133.6c3.3-3.1,6.6-5.7,9.7-8c-12.1-24.5-37.3-41.3-66.5-41.3c-31.4,0-58.3,19.6-69.1,47.2l10,8.3
	c7.9-25.1,31.4-43.3,59.1-43.3C125.2,96.4,147,111.7,156.6,133.6z"/>
<path class="st0" d="M107.9,219.1c9.8,0.3,19.2,2.5,27.8,6.2v-66.8l0.7-1c5.5-8.3,11.2-15,16.7-20.6c-8.5-21.1-29.2-36-53.3-36
	c-26.4,0-48.6,17.7-55.3,41.9l-3.4,29.5h4.1l4.8-14.5h28.6l-2.7,10.3c-1.2,4.7-4.6,8-9.6,8.8c-12.6,2-12.5,2-12.5,2v0
	c-5,0.8-9.2,5.3-9.9,10.1l-9.7,68.7l3.7,0c12.7-21.7,35.5-36.7,61.9-38.5h0c8.2-5.6,13.6-15,13.6-25.7c0-3.2-0.5-6.3-1.4-9.2l0-0.1
	c2.3,4.3,3.6,9.3,3.6,14.5C115.5,206.6,112.6,213.7,107.9,219.1z"/>
<path class="st0" d="M259.3,51.4l13.6-5.5l9.9,17.3c1.6-0.4,3.3-0.7,4.9-1l1.6-16.4c-31.1-25.2-67.9-32.8-78.9-34.5L202.8,0
	l-7.5,11.3c-11,1.7-48.1,9.4-79.2,34.8l1.6,16.1c1.6,0.3,3.3,0.7,4.9,1l9.9-17.3l13.8,5.6c27.7-19.3,49.5-19.5,49.5-19.5l7.1,11.3
	l7.1-11.3C209.9,32.1,231.6,32.2,259.3,51.4z"/>
<path class="st0" d="M90.2,223.9c-7.3,0.9-19.6,4.9-27,10.6c18.4,60.6,78.3,87.6,78.3,87.6L87.7,357l-34-22.7L81.1,382l101.1-59.5
	C133.7,297.1,95.6,257,90.2,223.9z"/>
<path class="st0" d="M263.8,322.1c0,0,59.9-27,78.3-87.6c-8.5-5.5-14.8-8.3-27-10.6c-5.3,33.1-43.5,73.2-91.9,98.6L324.3,382
	l27.4-47.7l-34,22.7L263.8,322.1z"/>
</svg>
