<?xml version="1.0" encoding="utf-8"?>
<!-- Generator: Adobe Illustrator 19.0.0, SVG Export Plug-In . SVG Version: 6.00 Build 0)  -->
<svg version="1.1"
	 id="svg2" inkscape:version="0.91 r13725" sodipodi:docname="FIRST Logo.svg" xmlns:svg="http://www.w3.org/2000/svg" xmlns:dc="http://purl.org/dc/elements/1.1/" xmlns:cc="http://creativecommons.org/ns#" xmlns:sodipodi="http://sodipodi.sourceforge.net/DTD/sodipodi-0.dtd" xmlns:rdf="http://www.w3.org/1999/02/22-rdf-syntax-ns#" xmlns:inkscape="http://www.inkscape.org/namespaces/inkscape"
	 xmlns="http://www.w3.org/2000/svg" xmlns:xlink="http://www.w3.org/1999/xlink" x="0px" y="0px" viewBox="-128.9 141.8 94.9 78.3"
	 style="enable-background:new -128.9 141.8 94.9 78.3;" xml:space="preserve">
<style type="text/css">
	.st0{fill:#99989A;}
	.st1{fill:#FFFFFF;}
	.st2{fill:#ED1D24;}
	.st3{fill:#0066B3;}
</style>
<sodipodi:namedview  id="base" fit-margin-bottom="1" inkscape:window-height="705" inkscape:window-maximized="1" fit-margin-right="0.4" inkscape:window-x="-8" inkscape:window-y="-8" inkscape:window-width="1366" inkscape:pageshadow="2" inkscape:pageopacity="0.0" inkscape:current-layer="layer1" inkscape:document-units="px" showgrid="false" pagecolor="#ffffff" inkscape:cx="64.966072" bordercolor="#666666" inkscape:cy="-0.52430365" fit-margin-left="0.4" inkscape:zoom="3.3041727" fit-margin-top="1" borderopacity="1.0">
	</sodipodi:namedview>
<g id="layer1" transform="translate(-86.226647,-938.70972)" inkscape:groupmode="layer" inkscape:label="Layer 1">
	<g id="g3610" transform="matrix(1.25,0,0,-1.25,144.93434,962.47003)">
		<path id="path3612" inkscape:connector-curvature="0" class="st0" d="M-113.4-107.4c1.2,0,2.4-0.1,3.5-0.3l2.6,2.8
			c-1.8,0.6-3.9,1-6.1,1c-3.7,0-7.1-1-9.6-2.7l2.3-2.2C-118.6-107.9-116.1-107.4-113.4-107.4"/>
	</g>
	<g id="g3614" transform="matrix(1.25,0,0,-1.25,144.93434,957.09878)">
		<path id="path3616" inkscape:connector-curvature="0" class="st1" d="M-113.4-108.3c2.2,0,4.3-0.4,6.1-1l2.9,3
			c-2.7,1.1-5.7,1.7-9,1.7c-4.8,0-9.3-1.3-12.6-3.5l3-2.9C-120.5-109.3-117.1-108.3-113.4-108.3"/>
	</g>
	<g id="g3618" transform="matrix(1.25,0,0,-1.25,123.39472,975.37128)">
		<path id="path3620" inkscape:connector-curvature="0" class="st0" d="M-109.9-105.3c0.2,1,0.7,1.9,1.3,2.8l-1.2,1.2
			c-0.2-0.7-0.4-1.5-0.4-2.2C-110.2-104.2-110.1-104.8-109.9-105.3"/>
	</g>
	<g id="g3622" transform="matrix(1.25,0,0,-1.25,110.04122,985.47765)">
		<path id="path3624" inkscape:connector-curvature="0" class="st0" d="M-107.8-103.7l-0.5-2.5l4.8,2.1c-0.3,0.6-0.4,1.5-0.5,2.2
			L-107.8-103.7z"/>
	</g>
	<g id="g3626" transform="matrix(1.25,0,0,-1.25,104.72909,942.70328)">
		<path id="path3628" inkscape:connector-curvature="0" class="st0" d="M-107-110.6l-7-38.3l3.3-0.3l6.9,38.8L-107-110.6z"/>
	</g>
	<g id="g3630" transform="matrix(1.25,0,0,-1.25,141.46834,977.13053)">
		<path id="path3632" inkscape:connector-curvature="0" class="st2" d="M-112.8-105.1v3.1l-5.1,4.8l-2.3,2.2l-3,2.9l-9.9,9.4
			l-6.9-38.8l14.7,6.4c-1.5,1.3-2.5,2.7-3.3,4.3l-4.8-2l0.5,2.5l3.1,16.1l0.3,1.4l2.6-2.6l3.3-3.3l1.4-1.4l5.8-5l-5.6-2.6
			c1.5-1.5,3.2-2.7,5.5-3.5l7,3.2L-112.8-105.1z"/>
	</g>
	<g id="g3634" transform="matrix(1.25,0,0,-1.25,166.47259,975.37128)">
		<path id="path3636" inkscape:connector-curvature="0" class="st0" d="M-116.8-105.3c0.1,0.6,0.2,1.1,0.2,1.7
			c0,1.7-0.6,3.4-1.7,4.8l-1.7-1.7C-118.4-101.9-117.3-103.5-116.8-105.3"/>
	</g>
	<g id="g3638" transform="matrix(1.25,0,0,-1.25,171.36934,1000.9785)">
		<path id="path3640" inkscape:connector-curvature="0" class="st0" d="M-117.6-101.2l-4,3.8c-0.6-0.4-1.3-0.8-2-1.2l6-5.7
			l18.4,19.2l0,3.1L-117.6-101.2z"/>
	</g>
	<g id="g3642" transform="matrix(1.25,0,0,-1.25,150.42797,980.87603)">
		<path id="path3644" inkscape:connector-curvature="0" class="st0" d="M-114.3-104.5l-3.3,3.1l-2.5,2.4l0-3.1l3.5-3.4l3.3-3.2
			c0.8,0.2,1.7,0.5,2.4,0.8L-114.3-104.5z"/>
	</g>
	<g id="g3646" transform="matrix(1.25,0,0,-1.25,170.40947,953.80703)">
		<path id="path3648" inkscape:connector-curvature="0" class="st0" d="M-117.5-108.8l-2.6-2.7l-2.9-3l-2-2l-3.7-3.9l1.6-1.5l4,4.1
			l1.7,1.7l3,3.2l1,1l10.1-9.7l1.6,1.6L-117.5-108.8z"/>
	</g>
	<g id="g3650" transform="matrix(1.25,0,0,-1.25,168.88984,960.27928)">
		<path id="path3652" inkscape:connector-curvature="0" class="st1" d="M-117.2-107.7l-3-3.2c1.1-1.4,1.7-3,1.7-4.8
			c0-0.6-0.1-1.2-0.2-1.7c-0.4-1.5-1.2-2.8-2.3-4c-1.2-1.2-2.7-2.2-4.5-2.9c-0.8-0.3-1.6-0.6-2.4-0.8c-1.4-0.4-3-0.6-4.6-0.6
			c-2,0-3.9,0.3-5.6,0.8c-2.3,0.7-4.3,1.9-5.8,3.4c-0.5,0.5-1,1.1-1.4,1.7c-0.5,0.7-0.8,1.5-1,2.4c-0.1,0.6-0.2,1.1-0.2,1.7
			c0,0.8,0.1,1.5,0.4,2.2l-3.5,3.5c-1.3-1.9-2-4-2-6.3c0-0.6,0.1-1.2,0.1-1.7c0.2-1.4,0.7-2.7,1.4-3.9c0.4-0.6,0.8-1.2,1.2-1.8
			c1.2-1.5,2.8-2.8,4.7-3.8c3.2-1.8,7.3-2.9,11.6-2.9c3.1,0,6,0.5,8.5,1.5c0.8,0.3,1.5,0.6,2.2,1c1.7,0.8,3.1,1.9,4.4,3
			c2.1,2,3.4,4.3,3.9,6.9c0.1,0.6,0.1,1.1,0.1,1.7C-113.4-113-114.8-110.1-117.2-107.7"/>
	</g>
	<g id="g3654" transform="matrix(1.25,0,0,-1.25,150.40185,980.9119)">
		<path id="path3656" inkscape:connector-curvature="0" class="st3" d="M-114.3-104.4l3.5-3.4c1.8,0.7,3.3,1.7,4.5,2.9l-4.8,4.6
			l-1.6,1.5l3.7,3.9l2,2l2.9,3l2.6,2.7l11.6-11.2l-1.6-1.6l-9.5-9.9c-1-1.4-2.3-2.6-3.9-3.7l3.9-3.8l18.4,19.2l-19.2,18.4l-7.2-7.5
			l-2.9-3l-2.6-2.8l-5.7-5.9L-114.3-104.4z"/>
	</g>
	<g id="g3658" transform="matrix(1.25,0,0,-1.25,125.10847,979.21253)">
		<path id="path3660" inkscape:connector-curvature="0" class="st0" d="M-110.2-104.7c0,0,0.1-0.2,0.1-0.2c0.3-0.4,0.7-0.9,1-1.3
			l5.7,2.6l-13.1,12.2l-0.4-1.9l10.3-10.2L-110.2-104.7z"/>
	</g>
	<g id="g3662" transform="matrix(1.25,0,0,-1.25,174.82835,973.50415)">
		<path id="path3664" inkscape:connector-curvature="0" class="st0" d="M-118.2-105.6c0-0.6-0.1-1.2-0.1-1.7c-0.4-2.6-1.8-5-3.9-6.9
			c-1.2-1.2-2.7-2.2-4.4-3c-0.7-0.4-1.5-0.7-2.2-1c-2.6-0.9-5.5-1.5-8.5-1.5c-4.4,0-8.4,1.1-11.6,2.9c-1.9,1.1-3.4,2.4-4.7,3.8
			c-0.5,0.6-0.9,1.2-1.2,1.8c-0.7,1.2-1.2,2.5-1.4,3.9c-0.1,0.6-0.1,1.1-0.1,1.7c0,0.2,0,0.4,0,0.5c0,0,0,0,0,0c-0.1-0.6,0-3.4,0-4
			c0-0.9,0.1-1.8,0.4-2.7c0.2-0.7,0.4-1.3,0.7-2c0.8-1.6,1.9-3.1,3.4-4.4c3.5-3.1,8.8-5.1,14.7-5.1c4.1,0,7.9,1,11,2.6
			c0.7,0.4,1.4,0.8,2,1.2c1.5,1.1,2.8,2.3,3.9,3.7c1.5,2,2.3,4.3,2.3,6.7c0,0.5,0,2.9,0,3.9C-118.2-105-118.2-105.5-118.2-105.6"/>
	</g>
	<g id="g3666" transform="matrix(1.25,0,0,-1.25,94.52772,1009.8597)">
		<path id="path3668" inkscape:connector-curvature="0" d="M-105.3-99.8h13.1l-1.2-5h-6.3l-0.6-2.6h6.5l-1.1-4.7h-6.5l-1.6-6.6h-6.8
			L-105.3-99.8z"/>
	</g>
	<g id="g3670" transform="matrix(1.25,0,0,-1.25,117.76722,1009.8597)">
		<path id="path3672" inkscape:connector-curvature="0" d="M-109-99.8h6.8l-4.4-19h-6.8L-109-99.8z"/>
	</g>
	<g id="g3674" transform="matrix(1.25,0,0,-1.25,138.90572,1024.0137)">
		<path id="path3676" inkscape:connector-curvature="0" d="M-112.4-97.5c2.2,0,3.7,1.3,3.7,3.1c0,1-0.7,1.5-2.1,1.5
			c-0.4,0-0.6,0-1.1-0.1l-1-4.4C-112.7-97.5-112.7-97.5-112.4-97.5 M-117.4-88.6l0.4,0.1c2.2,0.3,4.9,0.4,6.4,0.4
			c2.5,0,4.4-0.3,5.9-0.9c1.9-0.8,3-2.4,3-4.5c0-1.7-0.6-3.4-1.7-4.7c-1-1.1-1.8-1.7-3.6-2.2l-0.4-0.1c0.2-0.1,0.2-0.2,0.3-0.3
			c0.5-0.6,2.1-3.7,3.4-6.7h-7.4c-1,2.7-1.2,3.4-2.5,6.5l-1.5-6.5h-6.6C-121.8-107.5-117.4-88.6-117.4-88.6z"/>
	</g>
	<g id="g3678" transform="matrix(1.25,0,0,-1.25,180.62297,1009.8597)">
		<path id="path3680" inkscape:connector-curvature="0" d="M-119.1-99.8h16.4l-1.1-5.5h-4.9l-3.2-13.5h-6.8l3.2,13.5h-5.3
			L-119.1-99.8z"/>
	</g>
	<g id="g3682" transform="matrix(1.25,0,0,-1.25,196.69897,1036.734)">
		<path id="path3684" inkscape:connector-curvature="0" d="M-121.7-95.5c0.1,0,0.2,0.1,0.2,0.2c0,0.1-0.1,0.2-0.2,0.2c0,0,0,0-0.1,0
			L-121.7-95.5C-121.7-95.5-121.7-95.5-121.7-95.5 M-122.3-94.7c0.1,0,0.1,0,0.3,0c0.2,0,0.2,0,0.3,0c0.5,0,0.8-0.2,0.8-0.6
			c0-0.2-0.1-0.4-0.3-0.5l0,0c0,0,0,0,0,0c0.1-0.1,0.2-0.3,0.4-0.6h-0.6c-0.1,0.2-0.2,0.3-0.3,0.6v-0.6h-0.5
			C-122.3-96.4-122.3-94.7-122.3-94.7z M-121.6-97c0.8,0,1.4,0.6,1.4,1.4c0,0.8-0.6,1.4-1.4,1.4c-0.8,0-1.4-0.6-1.4-1.4
			C-123.1-96.4-122.4-97-121.6-97 M-121.6-93.9c0.9,0,1.7-0.7,1.7-1.6c0-0.9-0.7-1.7-1.7-1.7c-0.9,0-1.6,0.7-1.6,1.7
			C-123.3-94.6-122.5-93.9-121.6-93.9"/>
	</g>
	<g id="g3686" transform="matrix(1.25,0,0,-1.25,153.47197,1038.7918)">
		<path id="path3688" inkscape:connector-curvature="0" d="M-114.8-95.2c1.9-0.6,4-0.9,5.9-0.9c2.6,0,4.7,0.6,6.4,1.9
			c1.9,1.4,3.2,3.5,3.2,5.4c0,1.3-0.6,2.5-1.6,3.3c-0.8,0.6-1.6,1.1-3.2,1.9l-1.3,0.6c-0.4,0.2-0.7,0.5-0.7,0.7c0,0.7,0.9,1.2,2,1.2
			c0.9,0,1.9-0.3,3.9-0.9l1.4,5.1c-1.5,0.4-3,0.6-4.4,0.6c-5.5,0-9.8-3-9.8-6.9c0-2.1,1.4-3.5,4.8-5.1c1.6-0.7,1.9-0.9,1.9-1.5
			c0-0.8-0.8-1.3-2.2-1.3c-1.2,0-2.8,0.4-4.9,1.1l0,0L-114.8-95.2z"/>
	</g>
</g>
</svg>
